PathFileType	4	(X/Y/Z)	
DataRate	CameraRate	NumFrames	NumMarkers	Units	OrigDataRate	OrigDataStartFrame	OrigNumFrames
60	60	11	25	m	100	142	188
Frame#	Time	Nose				Neck				RShoulder				RElbow				RWrist				LShoulder				LElbow				LWrist				CHip				RHip				RKnee				RAnkle				LHip				LKnee				LAnkle				REye				LEye				REar				LEar				LBigToe				LSmallToe				LHeel				RBigToe				RSmallToe				RHeel			
X1	Y1	Z1	X2	Y2	Z2	X3	Y3	Z3	X4	Y4	Z4	X5	Y5	Z5	X6	Y6	Z6	X7	Y7	Z7	X8	Y8	Z8	X9	Y9	Z9	X10	Y10	Z10	X11	Y11	Z11	X12	Y12	Z12	X13	Y13	Z13	X14	Y14	Z14	X15	Y15	Z15	X16	Y16	Z16	X17	Y17	Z17	X18	Y18	Z18	X19	Y19	Z19	X20	Y20	Z20	X21	Y21	Z21	X22	Y22	Z22	X23	Y23	Z23	X24	Y24	Z24	X25	Y25	Z25
142	2.35	0.072472	1.4422674	-0.5074507	0.077195	1.2939817	-0.6871167	0.0020314	1.2793403	-0.5877753	0.2347161	1.2246038	-0.3882203	0.4299864	1.4007022	-0.4426213	0.2226876	1.3220432	-0.7479298	0.4935939	1.2603729	-0.7399133	0.4928511	1.3995913	-0.519029	0.0306291	0.7909128	-0.7807878	-0.071508	0.8044545	-0.7533606	-0.2345709	0.4182428	-0.6527146	-0.4326726	0.1005803	-0.8602518	0.1332566	0.7968107	-0.8107752	0.3324785	0.4715358	-0.6321419	0.4947787	0.1025347	-0.7675359	0.0414655	1.4598483	-0.5327264	0.0932849	1.4795687	-0.5197644	0.0242359	1.4333621	-0.6311892	0.1663423	1.4846914	-0.6019278	0.5392483	0.0143251	-0.617134	0.5705711	0.0287765	-0.6499392	0.486616	0.0790759	-0.8085577	-0.4792414	-0.0360062	-0.7474504	-0.5089029	-0.0126146	-0.7767898	-0.4155743	0.0905116	-0.9000872
143	2.3666666666666667	0.0644388	1.433296	-0.4973225	0.0674674	1.2890034	-0.6801161	-0.0110739	1.2749301	-0.5826477	0.2171141	1.2106493	-0.3802959	0.414136	1.3839264	-0.4357078	0.2156597	1.3133117	-0.7384357	0.4816648	1.2303798	-0.7273697	0.4803419	1.3672247	-0.5056964	0.0201067	0.786414	-0.7803408	-0.0830218	0.7997015	-0.7566007	-0.2476769	0.414064	-0.6567953	-0.4369956	0.0942832	-0.8690369	0.1235533	0.7927501	-0.8064599	0.3207125	0.469777	-0.6231668	0.4945062	0.1079699	-0.7650125	0.0339959	1.4525728	-0.522052	0.0863474	1.4703292	-0.5083915	0.0161601	1.4297072	-0.6215031	0.1598971	1.4758692	-0.5903015	0.5344183	0.0119541	-0.6184207	0.5666945	0.0280552	-0.649845	0.4874713	0.0865634	-0.8071254	-0.4897587	-0.0386275	-0.7541092	-0.5179021	-0.0155451	-0.7848399	-0.4187929	0.0831042	-0.9084017
144	2.3833333333333333	0.0566815	1.4307325	-0.4986613	0.0617403	1.2890185	-0.6832625	-0.0222567	1.2766004	-0.5892792	0.1962647	1.2032038	-0.3790204	0.3973707	1.3717003	-0.4326244	0.2133778	1.3091973	-0.7364094	0.4728701	1.2070597	-0.7163904	0.4647318	1.3451412	-0.4963776	0.0157837	0.7856679	-0.7837438	-0.0885045	0.7991225	-0.7653746	-0.2561345	0.4169123	-0.658111	-0.4356228	0.088938	-0.8660718	0.1202912	0.7918732	-0.8045964	0.3108906	0.4710299	-0.6116803	0.4949652	0.1138543	-0.7539357	0.0272812	1.4515295	-0.5234367	0.0798514	1.4673619	-0.5082962	0.0107224	1.4317173	-0.6239578	0.1553027	1.4727883	-0.5886604	0.5282354	0.0111719	-0.6105204	0.5617954	0.028302	-0.6404366	0.4893739	0.0942347	-0.7967517	-0.4950049	-0.036899	-0.7458915	-0.5213962	-0.0149468	-0.7785904	-0.4162263	0.0755551	-0.9045561
145	2.4	0.0487931	1.4259555	-0.4942021	0.0557343	1.2909231	-0.6834227	-0.0348212	1.2801046	-0.5944244	0.1703629	1.1904494	-0.3767615	0.379335	1.3503997	-0.4242039	0.2112756	1.3055645	-0.729496	0.4604595	1.1797973	-0.7015614	0.4497404	1.3159959	-0.4812127	0.0075433	0.7883948	-0.7900168	-0.0977307	0.8023965	-0.7780797	-0.2704042	0.424246	-0.6646836	-0.4401003	0.087143	-0.8657666	0.11296	0.7940464	-0.804425	0.2940889	0.4726399	-0.6041623	0.4898183	0.1219919	-0.7491176	0.0208181	1.4491272	-0.518532	0.0735712	1.4620436	-0.5013882	0.0059575	1.4350166	-0.6205573	0.1513544	1.4683895	-0.5796936	0.5163157	0.0114385	-0.610649	0.5511668	0.0298007	-0.6387137	0.4858671	0.1047329	-0.7926483	-0.5065412	-0.0307277	-0.7405802	-0.5309855	-0.0100818	-0.7752194	-0.41954	0.0714231	-0.9031922
146	2.4166666666666665	0.0420261	1.4189177	-0.4871351	0.049476	1.2931099	-0.6824473	-0.0479447	1.2847496	-0.5993551	0.1433794	1.1770709	-0.3770705	0.3599567	1.3279982	-0.4173414	0.2087992	1.3006476	-0.7206303	0.4434788	1.1487449	-0.6866206	0.4340226	1.2800891	-0.4639739	-0.0011566	0.7916377	-0.7967234	-0.1070744	0.805993	-0.7924259	-0.2846023	0.4312218	-0.6745238	-0.4423164	0.0839069	-0.8673471	0.104749	0.7968392	-0.803364	0.27487	0.4729421	-0.5978356	0.4846387	0.1317048	-0.7477905	0.0157518	1.445127	-0.5102748	0.0687242	1.4540384	-0.4913476	0.002204	1.4387521	-0.6136895	0.1485533	1.4614921	-0.5677261	0.5045508	0.0121007	-0.6165368	0.5406085	0.0320041	-0.6422679	0.4826809	0.1174901	-0.7919509	-0.5156147	-0.027035	-0.7389575	-0.5379455	-0.0077057	-0.7752914	-0.4204087	0.0662705	-0.9035699
147	2.433333333333333	0.0348601	1.4170816	-0.5035092	0.0495451	1.2977368	-0.7023639	-0.0580055	1.2960502	-0.6302558	0.1055061	1.1723154	-0.3945749	0.332635	1.3100073	-0.4183736	0.2129888	1.2945566	-0.7250929	0.4265343	1.1180103	-0.6703405	0.4094204	1.2503248	-0.4492838	-0.0061088	0.7954631	-0.8140966	-0.1119198	0.8110331	-0.8215622	-0.3005709	0.444629	-0.6933991	-0.4442862	0.0819946	-0.8673851	0.099619	0.7992369	-0.8091763	0.2497723	0.475345	-0.5890443	0.4782327	0.143576	-0.7354781	0.0117915	1.446336	-0.5264603	0.0639632	1.4504335	-0.5039619	0.0041216	1.4468616	-0.631208	0.1487986	1.4566138	-0.5750982	0.4889185	0.0158565	-0.6119171	0.5266486	0.0369979	-0.6343505	0.4794901	0.1324679	-0.7797089	-0.5278018	-0.0181835	-0.7356549	-0.546955	-0.0011955	-0.7743458	-0.4202679	0.0615674	-0.9012071
148	2.45	0.0267176	1.4136455	-0.5176282	0.0477686	1.3007528	-0.7196337	-0.067119	1.3045994	-0.657657	0.0773146	1.168283	-0.4173151	0.3091592	1.2983785	-0.4328116	0.2134411	1.288496	-0.728478	0.4033988	1.0905402	-0.6573516	0.3798144	1.2210362	-0.4362803	-0.009934	0.7972843	-0.8289224	-0.1145353	0.8132127	-0.8471687	-0.3127377	0.4539586	-0.7109564	-0.4444091	0.078946	-0.8665695	0.0944442	0.8003256	-0.8131897	0.2248273	0.4736515	-0.5840804	0.471628	0.154291	-0.7308348	0.0061416	1.4453396	-0.539737	0.0573831	1.4453876	-0.5148283	0.0031086	1.4522994	-0.6450845	0.1456937	1.4510748	-0.5818487	0.4751827	0.0173802	-0.6183577	0.5140395	0.0399858	-0.6371788	0.4759615	0.1470731	-0.7747259	-0.5378233	-0.0122544	-0.7343546	-0.5536864	0.0027153	-0.774607	-0.418491	0.0564951	-0.8980565
149	2.466666666666667	0.0139326	1.4102336	-0.5183409	0.0450583	1.3041537	-0.723235	-0.0780294	1.312113	-0.6744953	0.0340763	1.1613553	-0.4261029	0.2692847	1.2849426	-0.416533	0.2111403	1.2836587	-0.7154481	0.3736663	1.0656813	-0.6307901	0.3372276	1.1887823	-0.4076771	-0.0106383	0.8012076	-0.8395615	-0.1128731	0.8172074	-0.8691911	-0.3212713	0.4623607	-0.7346701	-0.4409457	0.077729	-0.8748065	0.0911276	0.8037274	-0.8119776	0.1994802	0.4694777	-0.5813009	0.4677629	0.1674526	-0.7292919	-0.0042628	1.4439241	-0.5396321	0.0456329	1.4404211	-0.5122246	-0.0017966	1.4566739	-0.6449537	0.1375713	1.4457891	-0.5742481	0.4648296	0.020184	-0.6324194	0.504583	0.0445013	-0.6464024	0.4757318	0.1651523	-0.7720998	-0.5438619	-0.0068694	-0.7447113	-0.5563921	0.0064992	-0.7859664	-0.4131024	0.0540196	-0.9040014
150	2.4833333333333334	0.0135373	1.408902	-0.5208485	0.0491455	1.3039761	-0.7263054	-0.0796273	1.3173969	-0.6883812	-0.0009733	1.1529411	-0.4360244	0.2382419	1.2631986	-0.4034235	0.2137514	1.2742053	-0.7055734	0.3451187	1.0383404	-0.6096485	0.2971625	1.1564558	-0.3863611	-0.0112569	0.8005961	-0.8417929	-0.1108657	0.8171085	-0.8801501	-0.3288147	0.4679908	-0.743442	-0.4434347	0.0762599	-0.8662214	0.0876299	0.8021004	-0.8051238	0.1743373	0.4631407	-0.570915	0.4603024	0.1748118	-0.7147795	-0.0030112	1.4436924	-0.541791	0.0462156	1.4376975	-0.5134467	0.0019101	1.4584575	-0.6471268	0.1396768	1.4406276	-0.5732606	0.4525838	0.0207715	-0.631357	0.4928178	0.0459729	-0.6411361	0.4712694	0.1763792	-0.7559522	-0.5529444	-0.0022498	-0.7372246	-0.5630617	0.0096509	-0.7790082	-0.4145444	0.0515139	-0.8936185
151	2.5	0.0126838	1.4095919	-0.5211129	0.0481636	1.3050992	-0.7278039	-0.0848767	1.3215243	-0.6974941	-0.0373914	1.1434114	-0.4465955	0.2027525	1.2395833	-0.3894258	0.2109962	1.2690603	-0.6988066	0.3163446	1.0203961	-0.5978668	0.2549307	1.13082	-0.3741943	-0.0126391	0.8019152	-0.8464692	-0.1103897	0.8182643	-0.8905891	-0.3289526	0.4670326	-0.7567773	-0.4341438	0.0715357	-0.8753009	0.0838346	0.802996	-0.8033154	0.1545845	0.4575484	-0.5713547	0.4565188	0.185011	-0.7144235	-0.0034857	1.4449118	-0.5415544	0.04607	1.4375848	-0.5138843	0.0001041	1.4604508	-0.6470664	0.1388096	1.4388881	-0.5745584	0.4466257	0.0253048	-0.6447145	0.4867497	0.0513865	-0.6505722	0.4699329	0.1902531	-0.7537708	-0.5465937	-0.008652	-0.7494685	-0.555127	0.0032138	-0.7911606	-0.4042327	0.0474635	-0.9021549
152	2.5166666666666666	0.0085758	1.4059173	-0.5199225	0.0495798	1.3027231	-0.726823	-0.0877553	1.3245796	-0.7093039	-0.0886408	1.1339858	-0.4629304	0.1460134	1.2083611	-0.3663155	0.2076067	1.2574881	-0.6847732	0.2784233	0.9941466	-0.5843436	0.1913295	1.0898411	-0.3626643	-0.0163253	0.8002058	-0.8474888	-0.1116191	0.8166237	-0.8980327	-0.3353352	0.4683943	-0.7613105	-0.4373223	0.0687279	-0.8671352	0.077225	0.8005477	-0.7975947	0.1299907	0.4495837	-0.5669629	0.4459222	0.1920835	-0.7085932	-0.0057943	1.442178	-0.5401614	0.0428509	1.4324073	-0.5114051	0.000661	1.4592581	-0.6455119	0.1369666	1.4308478	-0.5694342	0.4342711	0.0284251	-0.6517412	0.4742769	0.0547551	-0.6541027	0.4614312	0.2005418	-0.7457502	-0.5538452	-0.008508	-0.7429485	-0.5608103	0.0025334	-0.7846146	-0.4066958	0.0443826	-0.8932448
